<?xml version="1.0" standalone="no"?>
<!DOCTYPE svg PUBLIC "-//W3C//DTD SVG 20010904//EN"
 "http://www.w3.org/TR/2001/REC-SVG-20010904/DTD/svg10.dtd">
<svg version="1.0" xmlns="http://www.w3.org/2000/svg"
 width="24px" height="24px" viewBox="0 0 344.000000 344.000000"
 preserveAspectRatio="xMidYMid meet">

<g transform="translate(0.000000,344.000000) scale(0.100000,-0.100000)"
fill="#000000" stroke="none">
<path d="M1580 2940 l0 -360 -217 0 -218 0 288 -287 287 -288 287 288 288 287
-218 0 -217 0 0 360 0 360 -140 0 -140 0 0 -360z"/>
<path d="M140 3058 c0 -51 3 -116 6 -144 l6 -50 145 0 145 1 234 -560 c129
-308 234 -564 234 -569 0 -5 -43 -78 -95 -162 -52 -84 -100 -173 -106 -199
-34 -136 32 -280 159 -342 l57 -28 898 -3 897 -3 0 146 0 145 -865 0 c-646 0
-865 3 -865 12 0 6 37 71 82 144 l83 134 561 0 c631 0 618 -1 699 73 36 34
101 143 340 574 163 293 298 539 301 547 4 9 -32 34 -116 81 -67 37 -124 64
-128 61 -3 -4 -137 -242 -297 -529 l-290 -522 -526 -3 -527 -2 -49 117 c-27
65 -148 355 -269 645 l-219 528 -247 0 -248 0 0 -92z"/>
<path d="M930 851 c-138 -43 -218 -158 -208 -300 6 -76 25 -120 77 -174 51
-54 104 -79 182 -85 121 -8 216 43 273 148 60 110 40 244 -50 334 -70 70 -187
103 -274 77z"/>
<path d="M2331 839 c-114 -45 -188 -163 -178 -284 9 -115 85 -216 190 -251 64
-21 166 -15 222 14 48 24 106 83 130 132 26 51 31 156 11 217 -50 150 -227
231 -375 172z"/>
</g>
</svg>
