<?xml version="1.0"?>
<svg version="1.1" xmlns="http://www.w3.org/2000/svg" width="140" height="61" style=""><path fill="#" d="M21.336,30.86l0,7.56c0,2.76,0.792,3.84,3.144,3.84c2.544,0,3.096-1.368,3.096-4.2l0-7.2l-1.872-0.72l0-2.04l7.392-0.12l0,2.16l-1.8,0.72l0,7.2c0,4.632-1.776,7.128-6.936,7.128c-4.824,0-6.744-2.136-6.744-6.768l0-7.56l-1.776-0.72l0-2.04l7.368-0.12l0,2.16z M36.44424,44.9l0-2.04l1.8-0.72l0-11.28l-1.8-0.72l0-2.04l5.52-0.12l2.28,0c3.672,0,5.832,1.92,5.832,5.04c0,4.032-2.472,6-6.84,6l-1.272,0l0,3.12l1.8,0.72l0,2.04l-7.32,0z M41.96424,36.212l1.272,0c1.992,0,3.12-0.936,3.12-2.712c0-1.56-0.84-2.64-2.472-2.64l-1.92,0l0,5.352z"/><path fill="#328dcf" d="M61.16048,39.692l0.36,2.016s0.96,0.504,2.352,0.504c1.536,0,2.904-0.672,2.904-1.944c0-2.808-8.112-1.56-8.112-7.488c0-3.312,2.616-5.088,6.096-5.088c2.712,0,5.28,0.96,5.28,0.96l-0.12,4.368l-2.208,0l-0.6-2.04s-1.08-0.36-2.112-0.36c-1.704,0-2.544,0.744-2.544,1.704c0,2.784,8.088,1.68,8.088,7.32c0,3.6-2.784,5.568-6.48,5.568c-2.712,0-5.352-0.912-5.352-0.912l0-4.608l2.448,0z M74.25272,44.9l0-2.04l1.8-0.72l0-11.28l-1.8-0.72l0-2.04l7.44-0.12l0,2.16l-1.92,0.72l0,3.84l6.288,0l0-3.84l-1.92-0.72l0-2.04l7.44-0.12l0,2.16l-1.8,0.72l0,11.28l1.8,0.72l0,2.04l-7.44,0l0-2.04l1.92-0.72l0-4.56l-6.288,0l0,4.56l1.92,0.72l0,2.04l-7.44,0z M103.32896,27.692c4.8,0,7.56,3.168,7.56,8.52c0,5.4-3.24,9-8.04,9s-7.44-3-7.44-8.64c0-5.52,3.048-8.88,7.92-8.88z M103.20896,30.692c-2.4,0-3.72,1.488-3.72,5.76c0,3.96,1.08,5.76,3.48,5.76s3.84-1.56,3.84-5.88c0-3.96-1.2-5.64-3.6-5.64z M114.7172,44.9l0-2.04l1.8-0.72l0-11.28l-1.8-0.72l0-2.04l5.52-0.12l2.28,0c3.672,0,5.832,1.92,5.832,5.04c0,4.032-2.472,6-6.84,6l-1.272,0l0,3.12l1.8,0.72l0,2.04l-7.32,0z M120.2372,36.212l1.272,0c1.992,0,3.12-0.936,3.12-2.712c0-1.56-0.84-2.64-2.472-2.64l-1.92,0l0,5.352z"/></svg>
